<svg width="25" height="24" viewBox="0 0 25 24" fill="none" xmlns="http://www.w3.org/2000/svg">
<g clip-path="url(#clip0_4512_34142)">
<path d="M19.1111 5.88889H21.5556C22.2039 5.88889 22.8256 6.14643 23.284 6.60485C23.7425 7.06327 24 7.68503 24 8.33333V15.6667C24 16.315 23.7425 16.9367 23.284 17.3951C22.8256 17.8536 22.2039 18.1111 21.5556 18.1111H19.1111V23L14.2222 18.1111H9.33333C9.01229 18.1114 8.69435 18.0483 8.39776 17.9254C8.10118 17.8025 7.83181 17.6222 7.60511 17.3949M7.60511 17.3949L11.7778 13.2222H16.6667C17.315 13.2222 17.9367 12.9647 18.3951 12.5063C18.8536 12.0478 19.1111 11.4261 19.1111 10.7778V3.44444C19.1111 2.79614 18.8536 2.17438 18.3951 1.71596C17.9367 1.25754 17.315 1 16.6667 1H4.44444C3.79614 1 3.17438 1.25754 2.71596 1.71596C2.25754 2.17438 2 2.79614 2 3.44444V10.7778C2 11.4261 2.25754 12.0478 2.71596 12.5063C3.17438 12.9647 3.79614 13.2222 4.44444 13.2222H6.88889V18.1111L7.60511 17.3949Z" stroke="#EE2008" stroke-width="2" stroke-linecap="round" stroke-linejoin="round"/>
</g>
<defs>
<clipPath id="clip0_4512_34142">
<rect width="24" height="24" fill="white" transform="translate(0.804688)"/>
</clipPath>
</defs>
</svg>
