<svg width="32" height="32" viewBox="0 0 32 32" fill="none" xmlns="http://www.w3.org/2000/svg">
<path d="M5.33301 21.334L11.4477 15.2193C11.9477 14.7194 12.6259 14.4386 13.333 14.4386C14.0401 14.4386 14.7183 14.7194 15.2183 15.2193L21.333 21.334M18.6663 18.6673L20.781 16.5526C21.2811 16.0527 21.9592 15.7719 22.6663 15.7719C23.3734 15.7719 24.0516 16.0527 24.5517 16.5526L26.6663 18.6673M18.6663 10.6673H18.6797M7.99967 26.6673H23.9997C24.7069 26.6673 25.3852 26.3864 25.8853 25.8863C26.3854 25.3862 26.6663 24.7079 26.6663 24.0006V8.00065C26.6663 7.29341 26.3854 6.61513 25.8853 6.11503C25.3852 5.61494 24.7069 5.33398 23.9997 5.33398H7.99967C7.29243 5.33398 6.61415 5.61494 6.11406 6.11503C5.61396 6.61513 5.33301 7.29341 5.33301 8.00065V24.0006C5.33301 24.7079 5.61396 25.3862 6.11406 25.8863C6.61415 26.3864 7.29243 26.6673 7.99967 26.6673Z" stroke="#2D3748" stroke-width="2" stroke-linecap="round" stroke-linejoin="round"/>
</svg>
