<svg width="32" height="32" viewBox="0 0 32 32" fill="none" xmlns="http://www.w3.org/2000/svg">
<path d="M28.9979 16.0522C28.9979 18.7092 28.9979 21.3658 28.9979 24.0221C28.9979 26.8833 26.8935 28.9989 24.0445 28.9989H7.95132C5.12778 28.9989 3.00199 26.8822 3.00098 24.0699C3.00098 18.6889 3.00098 13.3076 3.00098 7.92589C3.00098 5.13789 5.12676 3.00297 7.90359 3.00195C13.3022 3.00195 18.7004 3.00195 24.0984 3.00195C26.8528 3.00195 28.9939 5.13485 28.9979 7.87714C29.0013 10.6032 29.0013 13.3282 28.9979 16.0522ZM4.82511 11.2319C4.81597 11.435 4.80276 11.5985 4.80276 11.7641C4.80276 15.8267 4.84237 19.8894 4.78347 23.9521C4.75706 25.7803 6.1861 27.2347 8.06305 27.2154C13.3445 27.1626 18.6243 27.1626 23.9023 27.2154C25.8128 27.2367 27.2347 25.7742 27.2063 23.9216C27.1433 19.8782 27.187 15.8328 27.187 11.7885V11.2349L4.82511 11.2319ZM12.7341 9.40369C11.8576 8.20825 11.045 7.11031 10.2376 6.01441C9.30927 4.75803 9.30927 4.75296 7.736 4.81186C6.55377 4.85655 5.68944 5.42736 5.13184 6.45724C4.62909 7.38556 4.84237 8.387 4.82105 9.40267H12.7432L12.7341 9.40369ZM19.2953 4.81085C19.4192 4.99773 19.4842 5.10742 19.5604 5.21001C20.5019 6.48873 21.4526 7.76135 22.3809 9.05023C22.5688 9.31024 22.7577 9.4179 23.0837 9.41283C24.2842 9.3915 25.4847 9.40369 26.6863 9.40369H27.1941C27.1941 8.81358 27.2032 8.30677 27.1941 7.79995C27.1565 6.10582 25.893 4.84234 24.1908 4.81593C22.972 4.79765 21.7532 4.81593 20.5344 4.81593L19.2953 4.81085ZM11.5762 4.81085C12.7046 6.33943 13.7498 7.76847 14.8172 9.17821C14.9188 9.3072 15.1524 9.38743 15.3251 9.39149C16.2706 9.41181 17.2172 9.40064 18.1638 9.40064H20.4145C19.279 7.86292 18.2126 6.41255 17.136 4.96929C17.1005 4.92572 17.0565 4.88976 17.0068 4.86358C16.9571 4.8374 16.9025 4.82154 16.8465 4.81694C15.1372 4.80679 13.4186 4.80882 11.5833 4.80882L11.5762 4.81085Z" fill="#A0AEC0"/>
<path d="M12.3447 19.1905C12.3447 17.8874 12.3447 16.5853 12.3447 15.2822C12.3447 14.3346 13.016 13.9406 13.8377 14.4128C16.108 15.7163 18.3764 17.0258 20.6426 18.3414C21.4552 18.8157 21.4491 19.5917 20.6233 20.0681C18.3747 21.3742 16.1229 22.6753 13.8682 23.9713C13.015 24.4618 12.3518 24.0728 12.3447 23.0958C12.3426 21.7967 12.3447 20.4936 12.3447 19.1905ZM14.1729 21.7226L18.5402 19.2007L14.1729 16.6818V21.7226Z" fill="#A0AEC0"/>
</svg>
