<svg width="16" height="17" viewBox="0 0 16 17" fill="none" xmlns="http://www.w3.org/2000/svg">
<path d="M15.4478 8.89565C15.6137 8.81252 15.7532 8.68486 15.8507 8.52698C15.9481 8.36909 15.9998 8.18721 15.9998 8.00166C15.9998 7.81611 15.9481 7.63421 15.8507 7.47633C15.7532 7.31845 15.6137 7.19079 15.4478 7.10766L1.44782 0.107654C1.27424 0.0207982 1.07912 -0.013661 0.886283 0.00848031C0.693445 0.0306216 0.511219 0.108406 0.361835 0.232346C0.21245 0.356285 0.102365 0.521021 0.0450086 0.706458C-0.0123482 0.891895 -0.0144978 1.09002 0.0388231 1.27665L1.46782 6.27665C1.52759 6.48563 1.65383 6.66944 1.82741 6.80026C2.00099 6.93107 2.21247 7.00178 2.42982 7.00165L7.00082 7.00165C7.26604 7.00165 7.52039 7.10701 7.70793 7.29455C7.89547 7.48208 8.00082 7.73644 8.00082 8.00165C8.00082 8.26687 7.89547 8.52122 7.70793 8.70876C7.52039 8.8963 7.26604 9.00165 7.00082 9.00165L2.42982 9.00165C2.21247 9.00153 2.00099 9.07223 1.82741 9.20305C1.65383 9.33387 1.52759 9.51768 1.46782 9.72665L0.0398219 14.7267C-0.0136039 14.9132 -0.011584 15.1113 0.0456374 15.2968C0.102859 15.4822 0.212808 15.647 0.362076 15.7711C0.511344 15.8951 0.693479 15.973 0.886271 15.9953C1.07906 16.0176 1.27418 15.9833 1.44782 15.8967L15.4478 8.89666L15.4478 8.89565Z" fill="#F16063"/>
</svg>
