<svg width="44" height="32" viewBox="0 0 44 32" fill="none" xmlns="http://www.w3.org/2000/svg">
<path d="M19.7667 5.756C20.3347 3.41467 23.6653 3.41467 24.2333 5.756C24.3186 6.10773 24.4856 6.43437 24.7209 6.70933C24.9563 6.98429 25.2532 7.19981 25.5875 7.33833C25.9219 7.47685 26.2842 7.53447 26.645 7.50649C27.0059 7.47852 27.355 7.36574 27.664 7.17733C29.7213 5.924 32.0773 8.27867 30.824 10.3373C30.6359 10.6462 30.5233 10.9951 30.4954 11.3557C30.4674 11.7163 30.525 12.0784 30.6634 12.4125C30.8017 12.7467 31.017 13.0434 31.2916 13.2787C31.5663 13.514 31.8926 13.6812 32.244 13.7667C34.5853 14.3347 34.5853 17.6653 32.244 18.2333C31.8923 18.3186 31.5656 18.4856 31.2907 18.7209C31.0157 18.9563 30.8002 19.2532 30.6617 19.5875C30.5232 19.9219 30.4655 20.2842 30.4935 20.645C30.5215 21.0059 30.6343 21.355 30.8227 21.664C32.076 23.7213 29.7213 26.0773 27.6627 24.824C27.3538 24.6359 27.0049 24.5233 26.6443 24.4954C26.2837 24.4674 25.9216 24.525 25.5875 24.6634C25.2533 24.8017 24.9566 25.017 24.7213 25.2916C24.486 25.5663 24.3188 25.8926 24.2333 26.244C23.6653 28.5853 20.3347 28.5853 19.7667 26.244C19.6814 25.8923 19.5144 25.5656 19.2791 25.2907C19.0437 25.0157 18.7468 24.8002 18.4125 24.6617C18.0781 24.5232 17.7158 24.4655 17.355 24.4935C16.9941 24.5215 16.645 24.6343 16.336 24.8227C14.2787 26.076 11.9227 23.7213 13.176 21.6627C13.3641 21.3538 13.4767 21.0049 13.5046 20.6443C13.5326 20.2837 13.475 19.9216 13.3366 19.5875C13.1983 19.2533 12.983 18.9566 12.7084 18.7213C12.4337 18.486 12.1074 18.3188 11.756 18.2333C9.41467 17.6653 9.41467 14.3347 11.756 13.7667C12.1077 13.6814 12.4344 13.5144 12.7093 13.2791C12.9843 13.0437 13.1998 12.7468 13.3383 12.4125C13.4769 12.0781 13.5345 11.7158 13.5065 11.355C13.4785 10.9941 13.3657 10.645 13.1773 10.336C11.924 8.27867 14.2787 5.92267 16.3373 7.176C17.6653 7.98667 19.3987 7.26933 19.7667 5.756Z" stroke="#A0AEC0" stroke-width="2" stroke-linecap="round" stroke-linejoin="round"/>
<path d="M26 16C26 17.0609 25.5786 18.0783 24.8284 18.8284C24.0783 19.5786 23.0609 20 22 20C20.9391 20 19.9217 19.5786 19.1716 18.8284C18.4214 18.0783 18 17.0609 18 16C18 14.9391 18.4214 13.9217 19.1716 13.1716C19.9217 12.4214 20.9391 12 22 12C23.0609 12 24.0783 12.4214 24.8284 13.1716C25.5786 13.9217 26 14.9391 26 16V16Z" stroke="#A0AEC0" stroke-width="2" stroke-linecap="round" stroke-linejoin="round"/>
</svg>
