<svg width="42" height="32" viewBox="0 0 42 32" fill="none" xmlns="http://www.w3.org/2000/svg">
<path d="M28.5426 24.876C26.5422 26.8764 23.829 28.0003 20.9999 28.0003C18.1709 28.0003 15.4577 26.8764 13.4573 24.876C11.4568 22.8756 10.333 20.1624 10.333 17.3333C10.333 14.5043 11.4568 11.7911 13.4573 9.79067C13.4573 9.79067 14.3333 12 16.9999 13.3333C16.9999 10.6667 17.6666 6.66667 20.9813 4C23.6666 6.66667 26.4533 7.70267 28.5413 9.79067C29.5335 10.78 30.3204 11.9557 30.8567 13.2501C31.3931 14.5445 31.6683 15.9322 31.6666 17.3333C31.6685 18.7344 31.3935 20.122 30.8573 21.4164C30.3212 22.7109 29.5346 23.8866 28.5426 24.876Z" stroke="#A0AEC0" stroke-width="2" stroke-linecap="round" stroke-linejoin="round"/>
<path d="M18.172 21.496C18.6365 21.9606 19.2083 22.3037 19.8369 22.4949C20.4655 22.686 21.1315 22.7194 21.7761 22.5921C22.4206 22.4647 23.0239 22.1806 23.5326 21.7647C24.0412 21.3489 24.4396 20.8141 24.6925 20.2078C24.9455 19.6014 25.0451 18.942 24.9827 18.288C24.9203 17.6339 24.6978 17.0053 24.3347 16.4577C23.9717 15.9101 23.4794 15.4604 22.9012 15.1482C22.3231 14.8361 21.677 14.6711 21.02 14.668L19.6667 18.668H17C17 19.692 17.3907 20.716 18.172 21.496Z" stroke="#A0AEC0" stroke-width="2" stroke-linecap="round" stroke-linejoin="round"/>
</svg>
