<svg width="32" height="32" viewBox="0 0 32 32" fill="none" xmlns="http://www.w3.org/2000/svg">
<path d="M19.669 14.8911L15.4063 12.0484C15.2054 11.9143 14.9717 11.8374 14.7304 11.8258C14.489 11.8142 14.2491 11.8683 14.0361 11.9825C13.8232 12.0967 13.6453 12.2667 13.5215 12.4741C13.3976 12.6816 13.3325 12.9188 13.333 13.1604V18.8444C13.333 19.0858 13.3985 19.3227 13.5225 19.5298C13.6466 19.7368 13.8245 19.9064 14.0373 20.0203C14.2502 20.1341 14.4899 20.1881 14.731 20.1764C14.9721 20.1647 15.2055 20.0877 15.4063 19.9538L19.669 17.1111C19.8516 16.9893 20.0013 16.8244 20.1049 16.6308C20.2085 16.4373 20.2626 16.2212 20.2626 16.0018C20.2626 15.7823 20.2085 15.5662 20.1049 15.3727C20.0013 15.1791 19.8516 15.0142 19.669 14.8924V14.8911Z" stroke="#A0AEC0" stroke-width="2" stroke-linecap="round" stroke-linejoin="round"/>
<path d="M28 16C28 17.5759 27.6896 19.1363 27.0866 20.5922C26.4835 22.0481 25.5996 23.371 24.4853 24.4853C23.371 25.5996 22.0481 26.4835 20.5922 27.0866C19.1363 27.6896 17.5759 28 16 28C14.4241 28 12.8637 27.6896 11.4078 27.0866C9.95189 26.4835 8.62902 25.5996 7.51472 24.4853C6.40042 23.371 5.5165 22.0481 4.91345 20.5922C4.31039 19.1363 4 17.5759 4 16C4 12.8174 5.26428 9.76516 7.51472 7.51472C9.76516 5.26428 12.8174 4 16 4C19.1826 4 22.2348 5.26428 24.4853 7.51472C26.7357 9.76516 28 12.8174 28 16Z" stroke="#A0AEC0" stroke-width="2" stroke-linecap="round" stroke-linejoin="round"/>
</svg>
